<?xml version="1.0" encoding="UTF-8"?>
<svg version="1.1" xmlns="http://www.w3.org/2000/svg" width="400" height="400">
<path d="M0 0 C132 0 264 0 400 0 C400 132 400 264 400 400 C268 400 136 400 0 400 C0 268 0 136 0 0 Z " fill="#11356F" transform="translate(0,0)"/>
<path d="M0 0 C10.18875 0.103125 20.3775 0.20625 30.875 0.3125 C30.875 31.3325 30.875 62.3525 30.875 94.3125 C17.345 94.6425 3.815 94.9725 -10.125 95.3125 C-6.165 96.6325 -2.205 97.9525 1.875 99.3125 C15.80492607 106.53542463 24.74801758 115.65984375 30.00390625 130.5 C31.12928489 135.42542399 31.24313373 140.08859397 31.25 145.125 C31.27449219 146.05892578 31.29898438 146.99285156 31.32421875 147.95507812 C31.36444983 157.61724221 28.5451986 165.45779978 21.84375 172.5 C8.33613724 184.93558 -7.78410521 185.48186852 -25.2265625 185.41015625 C-26.98069458 185.40864563 -26.98069458 185.40864563 -28.77026367 185.40710449 C-33.09685257 185.40191202 -37.42342737 185.38795107 -41.75 185.375 C-51.44375 185.354375 -61.1375 185.33375 -71.125 185.3125 C-71.125 154.2925 -71.125 123.2725 -71.125 91.3125 C-56.605 90.9825 -42.085 90.6525 -27.125 90.3125 C-31.085 89.3225 -35.045 88.3325 -39.125 87.3125 C-51.88702261 82.28657883 -62.29852185 75.06725826 -68.125 62.3125 C-72.68797621 50.64579945 -73.21853097 34.61175914 -69.21875 22.66796875 C-64.67346242 12.87936728 -57.56360948 7.92657639 -47.79663086 3.96118164 C-32.33463022 -1.39732782 -16.12826199 -0.23105807 0 0 Z " fill="#E9EDF4" transform="translate(147.125,77.6875)"/>
<path d="M0 0 C23.76 0 47.52 0 72 0 C72 9.57 72 19.14 72 29 C88.83 29 105.66 29 123 29 C123.04125 33.125 123.0825 37.25 123.125 41.5 C123.14320801 42.78455078 123.16141602 44.06910156 123.18017578 45.39257812 C123.21037415 51.65435515 122.89640387 57.02566473 121 63 C120.5359375 64.49466797 120.5359375 64.49466797 120.0625 66.01953125 C114.86439451 79.68366884 105.21022306 87.86489271 92.1875 93.8125 C85.06108323 96.46743958 80.05429721 96 72 96 C72 104.58 72 113.16 72 122 C70.14375 122.226875 68.2875 122.45375 66.375 122.6875 C49.33954013 125.38508909 33.86103794 133.33677337 23 147 C19.62978836 152.11821073 16.73876129 157.52247743 14 163 C8.76234266 160.8250406 7.19174807 157.02853593 5 152 C0.97263339 140.22666493 -0.15091057 129.49939742 -0.11352539 117.15820312 C-0.11367142 115.88907074 -0.11381744 114.61993835 -0.1139679 113.31234741 C-0.11425326 109.85423936 -0.10839878 106.39616642 -0.10139394 102.93806648 C-0.0951169 99.31593125 -0.09455317 95.6937951 -0.09336853 92.07165527 C-0.090268 85.22246591 -0.08207191 78.37329262 -0.07201904 71.52411032 C-0.05872124 62.26184945 -0.05334767 52.99958415 -0.04751682 43.73731613 C-0.0381311 29.15819873 -0.01820367 14.57911524 0 0 Z " fill="#E9EDF5" transform="translate(193,78)"/>
<path d="M0 0 C10.48687639 8.51373588 17.37719571 21.0000787 19.4921875 34.2578125 C20.97861863 50.66833102 17.54741854 66.50533133 6.984375 79.5234375 C0.36387485 86.78730914 -7.55893729 91.3463836 -16.5078125 95.2578125 C-17.28511719 95.60070312 -18.06242187 95.94359375 -18.86328125 96.296875 C-30.99852762 100.76665593 -45.86361268 99.31571256 -57.5078125 94.2578125 C-69.12624079 88.6612343 -77.65348339 80.04559184 -84.5078125 69.2578125 C-85.1678125 68.2678125 -85.8278125 67.2778125 -86.5078125 66.2578125 C-91.01339049 52.65885994 -93.29738296 37.83260081 -87.5078125 24.2578125 C-87.105625 23.30519531 -86.7034375 22.35257813 -86.2890625 21.37109375 C-79.31159743 6.23387091 -69.14044847 -3.28057959 -53.5078125 -9.1796875 C-34.54448089 -15.62606395 -16.12638561 -11.20306539 0 0 Z " fill="#E8EDF6" transform="translate(304.5078125,223.7421875)"/>
<path d="M0 0 C2.64 0 5.28 0 8 0 C8 2.31 8 4.62 8 7 C10.64 7 13.28 7 16 7 C16 14.26 16 21.52 16 29 C18.31 29 20.62 29 23 29 C23 21.74 23 14.48 23 7 C25.31 7 27.62 7 30 7 C30 4.69 30 2.38 30 0 C32.64 0 35.28 0 38 0 C38 7.26 38 14.52 38 22 C45.59 22 53.18 22 61 22 C61 24.64 61 27.28 61 30 C58.36 30 55.72 30 53 30 C53 32.31 53 34.62 53 37 C45.74 37 38.48 37 31 37 C31 39.31 31 41.62 31 44 C38.26 44 45.52 44 53 44 C53 46.64 53 49.28 53 52 C55.64 52 58.28 52 61 52 C61 54.64 61 57.28 61 60 C53.41 60 45.82 60 38 60 C38 67.26 38 74.52 38 82 C35.36 82 32.72 82 30 82 C30 79.69 30 77.38 30 75 C27.69 75 25.38 75 23 75 C23 67.41 23 59.82 23 52 C20.69 52 18.38 52 16 52 C16 49.69 16 47.38 16 45 C13.36 45 10.72 45 8 45 C8 47.31 8 49.62 8 52 C5.36 52 2.72 52 0 52 C0 54.31 0 56.62 0 59 C-7.26 59 -14.52 59 -22 59 C-22 56.69 -22 54.38 -22 52 C-19.69 52 -17.38 52 -15 52 C-15 49.36 -15 46.72 -15 44 C-7.41 44 0.18 44 8 44 C8 41.69 8 39.38 8 37 C0.41 37 -7.18 37 -15 37 C-15 34.69 -15 32.38 -15 30 C-17.31 30 -19.62 30 -22 30 C-22 27.36 -22 24.72 -22 22 C-14.74 22 -7.48 22 0 22 C0 14.74 0 7.48 0 0 Z " fill="#7F92B4" transform="translate(250,226)"/>
<path d="M0 0 C4.80480174 3.90076239 8.24168274 8.43930848 11.6171875 13.5703125 C12.0203418 14.18140869 12.42349609 14.79250488 12.83886719 15.42211914 C13.9375 17.18359375 13.9375 17.18359375 15.4921875 20.2578125 C15.1621875 21.2478125 14.8321875 22.2378125 14.4921875 23.2578125 C12.5121875 22.7628125 12.5121875 22.7628125 10.4921875 22.2578125 C9.9971875 23.2478125 9.9971875 23.2478125 9.4921875 24.2578125 C8.8321875 24.2578125 8.1721875 24.2578125 7.4921875 24.2578125 C7.4921875 26.5678125 7.4921875 28.8778125 7.4921875 31.2578125 C7.1621875 31.2578125 6.8321875 31.2578125 6.4921875 31.2578125 C6.4921875 28.9478125 6.4921875 26.6378125 6.4921875 24.2578125 C-1.0978125 24.2578125 -8.6878125 24.2578125 -16.5078125 24.2578125 C-16.5078125 16.9978125 -16.5078125 9.7378125 -16.5078125 2.2578125 C-19.1478125 2.2578125 -21.7878125 2.2578125 -24.5078125 2.2578125 C-24.5078125 4.5678125 -24.5078125 6.8778125 -24.5078125 9.2578125 C-26.8178125 9.2578125 -29.1278125 9.2578125 -31.5078125 9.2578125 C-31.5078125 16.5178125 -31.5078125 23.7778125 -31.5078125 31.2578125 C-33.8178125 31.2578125 -36.1278125 31.2578125 -38.5078125 31.2578125 C-38.5078125 23.9978125 -38.5078125 16.7378125 -38.5078125 9.2578125 C-41.1478125 9.2578125 -43.7878125 9.2578125 -46.5078125 9.2578125 C-46.5078125 6.9478125 -46.5078125 4.6378125 -46.5078125 2.2578125 C-49.1478125 2.2578125 -51.7878125 2.2578125 -54.5078125 2.2578125 C-54.5078125 9.5178125 -54.5078125 16.7778125 -54.5078125 24.2578125 C-61.7678125 24.2578125 -69.0278125 24.2578125 -76.5078125 24.2578125 C-76.5078125 26.8978125 -76.5078125 29.5378125 -76.5078125 32.2578125 C-74.1978125 32.2578125 -71.8878125 32.2578125 -69.5078125 32.2578125 C-69.5078125 34.5678125 -69.5078125 36.8778125 -69.5078125 39.2578125 C-61.9178125 39.2578125 -54.3278125 39.2578125 -46.5078125 39.2578125 C-46.5078125 41.5678125 -46.5078125 43.8778125 -46.5078125 46.2578125 C-54.0978125 46.2578125 -61.6878125 46.2578125 -69.5078125 46.2578125 C-70.4978125 48.7328125 -70.4978125 48.7328125 -71.5078125 51.2578125 C-73.4878125 51.2578125 -75.4678125 51.2578125 -77.5078125 51.2578125 C-77.5078125 52.2478125 -77.5078125 53.2378125 -77.5078125 54.2578125 C-77.5078125 56.92447917 -77.5078125 59.59114583 -77.5078125 62.2578125 C-79.17393155 62.3005335 -80.84164135 62.29845082 -82.5078125 62.2578125 C-82.8378125 61.9278125 -83.1678125 61.5978125 -83.5078125 61.2578125 C-84.0028125 62.2478125 -84.0028125 62.2478125 -84.5078125 63.2578125 C-85.1678125 63.2578125 -85.8278125 63.2578125 -86.5078125 63.2578125 C-91.55893142 52.27711919 -92.71227379 38.21007356 -88.5390625 26.67578125 C-88.19875 25.87785156 -87.8584375 25.07992187 -87.5078125 24.2578125 C-87.105625 23.30519531 -86.7034375 22.35257813 -86.2890625 21.37109375 C-79.31159743 6.23387091 -69.14044847 -3.28057959 -53.5078125 -9.1796875 C-34.54448089 -15.62606395 -16.12638561 -11.20306539 0 0 Z " fill="#E7ECF5" transform="translate(304.5078125,223.7421875)"/>
<path d="M0 0 C0.33 0 0.66 0 1 0 C1 1.98 1 3.96 1 6 C-1.31 6 -3.62 6 -6 6 C-6 8.31 -6 10.62 -6 13 C1.26 13 8.52 13 16 13 C16 10.69 16 8.38 16 6 C20.95 6 25.9 6 31 6 C31 13.26 31 20.52 31 28 C28.69 28 26.38 28 24 28 C24 31.3 24 34.6 24 38 C22.02 38 20.04 38 18 38 C18 38.33 18 38.66 18 39 C18.99 39.33 19.98 39.66 21 40 C21.495 42.97 21.495 42.97 22 46 C12.65117466 46.90472503 7.60582547 43.61984787 0.390625 37.94921875 C-5.48463142 32.93744699 -9.87024526 27.49967082 -14 21 C-14.66 20.01 -15.32 19.02 -16 18 C-16 17.01 -16 16.02 -16 15 C-15.34 15 -14.68 15 -14 15 C-13.34 13.68 -12.68 12.36 -12 11 C-11.67 11.66 -11.34 12.32 -11 13 C-8.97536745 13.65213292 -8.97536745 13.65213292 -7 14 C-7.46800711 9.94393835 -7.87953208 6.53411321 -10 3 C-9.01 3 -8.02 3 -7 3 C-6.67 2.34 -6.34 1.68 -6 1 C-4.35 1.33 -2.7 1.66 -1 2 C-0.67 1.34 -0.34 0.68 0 0 Z " fill="#E8EDF6" transform="translate(234,272)"/>
<path d="M0 0 C4.764375 -0.2165625 4.764375 -0.2165625 9.625 -0.4375 C10.6145166 -0.50122803 11.6040332 -0.56495605 12.62353516 -0.63061523 C16.29873632 -0.71122153 18.95304944 -0.76784949 21.98730469 1.45751953 C24.97696364 4.76090812 26 6.15884556 26 10.75 C25 14 25 14 23 17 C23.66 17.680625 24.32 18.36125 25 19.0625 C27.52217356 22.76694242 27.61871554 24.59165176 27 29 C24.4516736 34.00227035 23.395607 34.8417572 18 37 C12.06 37 6.12 37 0 37 C0 24.79 0 12.58 0 0 Z " fill="#E8EEF8" transform="translate(76,278)"/>
<path d="M0 0 C2.97 0 5.94 0 9 0 C9 12.54 9 25.08 9 38 C1 38 1 38 -1.1015625 36.25585938 C-1.60429687 35.45986328 -2.10703125 34.66386719 -2.625 33.84375 C-3.18574219 32.98652344 -3.74648437 32.12929688 -4.32421875 31.24609375 C-4.87722656 30.33988281 -5.43023437 29.43367188 -6 28.5 C-6.58394531 27.59378906 -7.16789063 26.68757813 -7.76953125 25.75390625 C-9.20485514 23.51856577 -10.60584741 21.2612475 -12 19 C-12.33 25.27 -12.66 31.54 -13 38 C-15.97 38 -18.94 38 -22 38 C-22 25.79 -22 13.58 -22 1 C-13 1 -13 1 -10.87670898 2.65234375 C-10.42110596 3.40644531 -9.96550293 4.16054688 -9.49609375 4.9375 C-8.98369141 5.74960937 -8.47128906 6.56171875 -7.94335938 7.3984375 C-7.44642578 8.25695312 -6.94949219 9.11546875 -6.4375 10 C-5.90576172 10.85851562 -5.37402344 11.71703125 -4.82617188 12.6015625 C-3.52179331 14.71677099 -2.25690573 16.856242 -1 19 C-0.67 12.73 -0.34 6.46 0 0 Z " fill="#E9EEF6" transform="translate(193,277)"/>
<path d="M0 0 C2.64 0 5.28 0 8 0 C8 2.31 8 4.62 8 7 C10.31 7 12.62 7 15 7 C15 14.59 15 22.18 15 30 C17.31 30 19.62 30 22 30 C22.144375 31.0725 22.28875 32.145 22.4375 33.25 C22.87348673 36.78337031 22.87348673 36.78337031 23.6875 39.25 C24 41 24 41 22 44 C22.66 44.33 23.32 44.66 24 45 C23.67 45.99 23.34 46.98 23 48 C23.66 48 24.32 48 25 48 C25 47.34 25 46.68 25 46 C26.32 46.33 27.64 46.66 29 47 C29.495 46.01 29.495 46.01 30 45 C31.84765625 44.3671875 31.84765625 44.3671875 34.0625 43.875 C35.16271484 43.62363281 35.16271484 43.62363281 36.28515625 43.3671875 C37.13400391 43.18542969 37.13400391 43.18542969 38 43 C33.50134004 48.49836217 24.54568269 50.46311593 17.69726562 51.27197266 C8.83027477 51.85532732 0.28818722 51.49853129 -8 48 C-7.360625 47.690625 -6.72125 47.38125 -6.0625 47.0625 C-4.06389179 46.1654837 -4.06389179 46.1654837 -3 45 C-4.32 44.34 -5.64 43.68 -7 43 C-5.68 43 -4.36 43 -3 43 C-3.33 42.34 -3.66 41.68 -4 41 C-6.52733235 40.34444881 -6.52733235 40.34444881 -9 40 C-5.77208445 37.8480563 -4.71599191 37.79913557 -1 38 C-0.67 35.03 -0.34 32.06 0 29 C2.31 29 4.62 29 7 29 C7 21.74 7 14.48 7 7 C4.69 7 2.38 7 0 7 C0 4.69 0 2.38 0 0 Z " fill="#E6EBF4" transform="translate(258,271)"/>
<path d="M0 0 C2.97 0 5.94 0 9 0 C9.33 3.63 9.66 7.26 10 11 C10.58265625 10.2059375 11.1653125 9.411875 11.765625 8.59375 C18.38219275 0.35425053 18.38219275 0.35425053 23.3359375 -0.73046875 C26.29460569 -0.69181632 29.08476863 -0.49588987 32 0 C29.94362272 4.43055832 26.93941516 7.27061367 23.3046875 10.51171875 C21.39646901 12.22378423 21.39646901 12.22378423 19 15 C19.07439399 19.23115814 22.35029724 22.34590958 24.875 25.5 C25.76833494 26.63533345 26.66156658 27.77074818 27.5546875 28.90625 C28.9730358 30.70070983 30.39368098 32.49336844 31.8203125 34.28125 C33 36 33 36 33 38 C29.04058343 38.9484534 25.92828057 39.17107232 22 38 C18.65799383 34.91327826 16.36993236 31.00374822 13.99609375 27.16015625 C12.35817282 23.9635116 12.35817282 23.9635116 10 23 C9.67 27.95 9.34 32.9 9 38 C6.03 38 3.06 38 0 38 C0 25.46 0 12.92 0 0 Z " fill="#DFE6F1" transform="translate(136,277)"/>
<path d="M0 0 C2.31 0 4.62 0 7 0 C7 2.31 7 4.62 7 7 C9.31 7 11.62 7 14 7 C14 9.31 14 11.62 14 14 C11.69 14 9.38 14 7 14 C7 16.64 7 19.28 7 22 C4.69 22 2.38 22 0 22 C0 19.69 0 17.38 0 15 C-2.64 15 -5.28 15 -8 15 C-8 17.31 -8 19.62 -8 22 C-10.64 22 -13.28 22 -16 22 C-16 24.31 -16 26.62 -16 29 C-23.26 29 -30.52 29 -38 29 C-38 26.69 -38 24.38 -38 22 C-35.69 22 -33.38 22 -31 22 C-31 19.36 -31 16.72 -31 14 C-23.41 14 -15.82 14 -8 14 C-8 11.69 -8 9.38 -8 7 C-5.36 7 -2.72 7 0 7 C0 4.69 0 2.38 0 0 Z " fill="#183769" transform="translate(266,256)"/>
<path d="M0 0 C2.97 0 5.94 0 9 0 C9 9.57 9 19.14 9 29 C14.61 29 20.22 29 26 29 C26 31.64 26 34.28 26 37 C25 38 25 38 22.59155273 38.11352539 C21.54942627 38.10828857 20.5072998 38.10305176 19.43359375 38.09765625 C18.42095459 38.09515869 17.40831543 38.09266113 16.36499023 38.09008789 C15.06891846 38.08098389 13.77284668 38.07187988 12.4375 38.0625 C8.333125 38.041875 4.22875 38.02125 0 38 C0 25.46 0 12.92 0 0 Z " fill="#D3DDED" transform="translate(107,277)"/>
<path d="M0 0 C7.59 0 15.18 0 23 0 C23 2.64 23 5.28 23 8 C20.36 8 17.72 8 15 8 C15 10.31 15 12.62 15 15 C7.74 15 0.48 15 -7 15 C-7 12.69 -7 10.38 -7 8 C-4.69 8 -2.38 8 0 8 C0 5.36 0 2.72 0 0 Z " fill="#314E80" transform="translate(288,248)"/>
<path d="M0 0 C2.31 0 4.62 0 7 0 C7 2.64 7 5.28 7 8 C9.64 8 12.28 8 15 8 C15 15.26 15 22.52 15 30 C12.36 30 9.72 30 7 30 C7 27.69 7 25.38 7 23 C4.69 23 2.38 23 0 23 C0 15.41 0 7.82 0 0 Z " fill="#143467" transform="translate(273,278)"/>
<path d="M0 0 C7.26 0 14.52 0 22 0 C22 2.64 22 5.28 22 8 C24.64 8 27.28 8 30 8 C30 10.31 30 12.62 30 15 C22.41 15 14.82 15 7 15 C7 12.69 7 10.38 7 8 C4.69 8 2.38 8 0 8 C0 5.36 0 2.72 0 0 Z " fill="#19396E" transform="translate(228,248)"/>
<path d="M0 0 C2.64 0 5.28 0 8 0 C8 7.26 8 14.52 8 22 C5.36 22 2.72 22 0 22 C0 24.31 0 26.62 0 29 C-2.31 29 -4.62 29 -7 29 C-7 21.74 -7 14.48 -7 7 C-4.69 7 -2.38 7 0 7 C0 4.69 0 2.38 0 0 Z " fill="#1C3C6D" transform="translate(280,226)"/>
<path d="M0 0 C2.31 0 4.62 0 7 0 C7 7.26 7 14.52 7 22 C4.69 22 2.38 22 0 22 C0 24.64 0 27.28 0 30 C-2.31 30 -4.62 30 -7 30 C-7 22.74 -7 15.48 -7 8 C-4.69 8 -2.38 8 0 8 C0 5.36 0 2.72 0 0 Z " fill="#17386C" transform="translate(258,278)"/>
<path d="M0 0 C6.93 0 13.86 0 21 0 C21 2.31 21 4.62 21 7 C23.64 7 26.28 7 29 7 C29 9.31 29 11.62 29 14 C21.74 14 14.48 14 7 14 C7 11.69 7 9.38 7 7 C4.69 7 2.38 7 0 7 C0 4.69 0 2.38 0 0 Z " fill="#17376B" transform="translate(281,271)"/>
<path d="M0 0 C2.31 0 4.62 0 7 0 C7 2.64 7 5.28 7 8 C9.31 8 11.62 8 14 8 C14 14.93 14 21.86 14 29 C11.69 29 9.38 29 7 29 C7 26.69 7 24.38 7 22 C4.69 22 2.38 22 0 22 C0 14.74 0 7.48 0 0 Z " fill="#15366C" transform="translate(251,226)"/>
<path d="M0 0 C6.6 0 13.2 0 20 0 C20 1.65 20 3.3 20 5 C17.69 5 15.38 5 13 5 C13 7.64 13 10.28 13 13 C5.74 13 -1.52 13 -9 13 C-9 10.69 -9 8.38 -9 6 C-3.555 5.505 -3.555 5.505 2 5 C1.34 4.67 0.68 4.34 0 4 C0 2.68 0 1.36 0 0 Z " fill="#13376C" transform="translate(237,272)"/>
<path d="M0 0 C2.64 0 5.28 0 8 0 C8 2.31 8 4.62 8 7 C10.31 7 12.62 7 15 7 C15 14.26 15 21.52 15 29 C14.34 28.01 13.68 27.02 13 26 C11.68 26 10.36 26 9 26 C8.67 27.32 8.34 28.64 8 30 C5.36 30 2.72 30 0 30 C0 29.67 0 29.34 0 29 C2.31 29 4.62 29 7 29 C7 21.74 7 14.48 7 7 C4.69 7 2.38 7 0 7 C0 4.69 0 2.38 0 0 Z " fill="#E0E9F6" transform="translate(258,271)"/>
<path d="M0 0 C0.99 0 1.98 0 3 0 C3 11.55 3 23.1 3 35 C2.01 35 1.02 35 0 35 C-0.33 35.66 -0.66 36.32 -1 37 C-2.98 37 -4.96 37 -7 37 C-6.360625 36.21625 -5.72125 35.4325 -5.0625 34.625 C-1.84990417 30.53624167 -1.56446977 28.22636279 -2 23 C-3.8646306 19.6167447 -3.8646306 19.6167447 -6 17 C-5.484375 16.505 -4.96875 16.01 -4.4375 15.5 C-2.29137285 11.76760496 -3.32206584 9.20319181 -4 5 C-3 3 -3 3 0 1 C0 0.67 0 0.34 0 0 Z " fill="#1A396C" transform="translate(104,277)"/>
<path d="M0 0 C0.33 0 0.66 0 1 0 C1 7.26 1 14.52 1 22 C3.31 22 5.62 22 8 22 C8 24.31 8 26.62 8 29 C10.31 29 12.62 29 15 29 C15 22.07 15 15.14 15 8 C12.69 8 10.38 8 8 8 C8 7.67 8 7.34 8 7 C10.64 7 13.28 7 16 7 C16 14.26 16 21.52 16 29 C18.31 29 20.62 29 23 29 C23 29.33 23 29.66 23 30 C20.69 30 18.38 30 16 30 C16 32.31 16 34.62 16 37 C13.36 37 10.72 37 8 37 C8 34.69 8 32.38 8 30 C5.36 30 2.72 30 0 30 C0 20.1 0 10.2 0 0 Z " fill="#8295B4" transform="translate(250,226)"/>
<path d="M0 0 C0.12375 0.639375 0.2475 1.27875 0.375 1.9375 C0.58125 2.618125 0.7875 3.29875 1 4 C1.66 4.33 2.32 4.66 3 5 C2.67 5.33 2.34 5.66 2 6 C1.82451729 10.47480899 2.14309068 14.60833973 3 19 C0.23434618 19.92188461 -1.38283702 20.11785222 -4.23046875 20.09765625 C-5.03291016 20.09443359 -5.83535156 20.09121094 -6.66210938 20.08789062 C-7.49548828 20.07951172 -8.32886719 20.07113281 -9.1875 20.0625 C-10.03248047 20.05798828 -10.87746094 20.05347656 -11.74804688 20.04882812 C-13.83206155 20.03705403 -15.91603977 20.0191189 -18 20 C-18 19.67 -18 19.34 -18 19 C-13.38 19 -8.76 19 -4 19 C-4 17.68 -4 16.36 -4 15 C-3.34 15 -2.68 15 -2 15 C-2 14.34 -2 13.68 -2 13 C-4.31 12.67 -6.62 12.34 -9 12 C-9 12.99 -9 13.98 -9 15 C-10.98 15.66 -12.96 16.32 -15 17 C-15 16.01 -15 15.02 -15 14 C-14.01 14 -13.02 14 -12 14 C-12 13.01 -12 12.02 -12 11 C-11.34 11 -10.68 11 -10 11 C-10 8.69 -10 6.38 -10 4 C-6.38026598 2.68373308 -3.90432869 2 0 2 C0 1.34 0 0.68 0 0 Z " fill="#CBD5E7" transform="translate(94,295)"/>
<path d="M0 0 C-1.74860154 3.78596297 -3.97170925 6.11591357 -7 9 C-7.680625 9.763125 -8.36125 10.52625 -9.0625 11.3125 C-11 13 -11 13 -15 13 C-15.33 13.99 -15.66 14.98 -16 16 C-16.99 16 -17.98 16 -19 16 C-19.66 16.33 -20.32 16.66 -21 17 C-21 16.34 -21 15.68 -21 15 C-21.99 14.67 -22.98 14.34 -24 14 C-23.34 13.67 -22.68 13.34 -22 13 C-21.608125 12.319375 -21.21625 11.63875 -20.8125 10.9375 C-14.99789096 1.51382329 -11.43616506 -1.35205892 0 0 Z " fill="#E2E9F2" transform="translate(168,277)"/>
<path d="M0 0 C1.65 0 3.3 0 5 0 C4.67 0.99 4.34 1.98 4 3 C3.34 3 2.68 3 2 3 C2 32.37 2 61.74 2 92 C21.14 92.33 40.28 92.66 60 93 C60 93.33 60 93.66 60 94 C40.2 94 20.4 94 0 94 C0 62.98 0 31.96 0 0 Z " fill="#D6E6F9" transform="translate(76,169)"/>
<path d="M0 0 C0.33 0 0.66 0 1 0 C1 1.98 1 3.96 1 6 C1.99 6 2.98 6 4 6 C4.33 5.34 4.66 4.68 5 4 C8.62657694 1.43267078 12.49279728 1.77038065 16.75 1.875 C17.44738281 1.88402344 18.14476563 1.89304687 18.86328125 1.90234375 C20.57566958 1.92580112 22.28788004 1.96166896 24 2 C24 4.31 24 6.62 24 9 C16.08 9 8.16 9 0 9 C0 6.03 0 3.06 0 0 Z " fill="#E7EEF9" transform="translate(108,305)"/>
<path d="M0 0 C3.81972698 1.50060703 5.89002382 3.48337303 8 7 C7.75 10.8125 7.75 10.8125 7 14 C6.67 13.34 6.34 12.68 6 12 C5.443125 12.144375 4.88625 12.28875 4.3125 12.4375 C-0.58150104 13.62793269 -4.93320785 14.09934887 -10 14 C-10 12.02 -10 10.04 -10 8 C-9.21625 7.71125 -8.4325 7.4225 -7.625 7.125 C-4.90328368 6.15087746 -4.90328368 6.15087746 -3 4 C-2.67 4.99 -2.34 5.98 -2 7 C-1.01 7.33 -0.02 7.66 1 8 C1 8.66 1 9.32 1 10 C2.32 9.67 3.64 9.34 5 9 C4.34 8.67 3.68 8.34 3 8 C3 7.34 3 6.68 3 6 C2.34 6 1.68 6 1 6 C0.67 4.02 0.34 2.04 0 0 Z " fill="#D5E0EF" transform="translate(94,278)"/>
<path d="M0 0 C3.64813364 3.5055778 6.76940717 7.1249963 9.8125 11.1875 C10.99779297 12.75564453 10.99779297 12.75564453 12.20703125 14.35546875 C14 17 14 17 14 19 C10.2495261 19.4138001 6.73458018 19.61368804 3 19 C0.56789144 17.03679373 -0.81984899 14.88191572 -2 12 C-2 11.34 -2 10.68 -2 10 C-0.68 9.34 0.64 8.68 2 8 C2 6.68 2 5.36 2 4 C1.34 4 0.68 4 0 4 C0 2.68 0 1.36 0 0 Z " fill="#D6E2EF" transform="translate(155,296)"/>
<path d="M0 0 C2.97 0 5.94 0 9 0 C9 12.54 9 25.08 9 38 C1 38 1 38 -0.875 36.5390625 C-1.24625 35.90742188 -1.6175 35.27578125 -2 34.625 C-2.391875 33.99851562 -2.78375 33.37203125 -3.1875 32.7265625 C-4 31 -4 31 -4 29 C-2.68 29.33 -1.36 29.66 0 30 C0 30.99 0 31.98 0 33 C1.98 33.33 3.96 33.66 6 34 C6 23.44 6 12.88 6 2 C3.03 1.505 3.03 1.505 0 1 C0 0.67 0 0.34 0 0 Z " fill="#B0C1D9" transform="translate(193,277)"/>
<path d="M0 0 C0.66 0 1.32 0 2 0 C2.33 11.55 2.66 23.1 3 35 C3.99 34.34 4.98 33.68 6 33 C6.51047318 29.91469117 6.51047318 29.91469117 6.5625 26.4375 C6.64018842 24.28812042 6.77015125 22.13846618 7 20 C7.66 19.67 8.32 19.34 9 19 C9 24.94 9 30.88 9 37 C6.03 37 3.06 37 0 37 C0 24.79 0 12.58 0 0 Z " fill="#BDCDE4" transform="translate(171,278)"/>
<path d="M0 0 C2.31 0 4.62 0 7 0 C7 0.66 7 1.32 7 2 C13.93 1.01 13.93 1.01 21 0 C21 2.31 21 4.62 21 7 C14.07 7 7.14 7 0 7 C0 4.69 0 2.38 0 0 Z " fill="#163669" transform="translate(281,256)"/>
<path d="M0 0 C0.99 0.33 1.98 0.66 3 1 C2.67 1.99 2.34 2.98 2 4 C2.639375 4.7425 3.27875 5.485 3.9375 6.25 C6.61511586 9.82015448 6.61464853 11.62062919 6 16 C4.125 19.4375 4.125 19.4375 2 22 C1.34 22 0.68 22 0 22 C-0.12375 21.195625 -0.2475 20.39125 -0.375 19.5625 C-0.58125 18.716875 -0.7875 17.87125 -1 17 C-1.66 16.67 -2.32 16.34 -3 16 C-2.34 16 -1.68 16 -1 16 C-1.09539062 15.09636719 -1.19078125 14.19273437 -1.2890625 13.26171875 C-1.39992188 12.08222656 -1.51078125 10.90273438 -1.625 9.6875 C-1.74101563 8.51574219 -1.85703125 7.34398437 -1.9765625 6.13671875 C-2 3 -2 3 0 0 Z " fill="#DBE7F5" transform="translate(97,291)"/>
<path d="M0 0 C2.64 0 5.28 0 8 0 C8 2.64 8 5.28 8 8 C5.69 8 3.38 8 1 8 C1 15.26 1 22.52 1 30 C0.67 30 0.34 30 0 30 C0 22.74 0 15.48 0 8 C-7.26 8 -14.52 8 -22 8 C-22 7.67 -22 7.34 -22 7 C-14.74 7 -7.48 7 0 7 C0 4.69 0 2.38 0 0 Z " fill="#8296B5" transform="translate(250,278)"/>
<path d="M0 0 C7.26 0 14.52 0 22 0 C22 1.98 22 3.96 22 6 C19.03 6 16.06 6 13 6 C13 5.34 13 4.68 13 4 C8.88092254 2.62697418 6.27865333 3.25293354 2 4 C1.34 4.66 0.68 5.32 0 6 C0 4.02 0 2.04 0 0 Z " fill="#113567" transform="translate(288,249)"/>
<path d="M0 0 C2.31 0 4.62 0 7 0 C7 0.33 7 0.66 7 1 C5.02 1 3.04 1 1 1 C1.33 6.28 1.66 11.56 2 17 C2 12.38 2 7.76 2 3 C3.32 2.67 4.64 2.34 6 2 C6.11269443 8.1105424 5.89604368 13.95170514 5 20 C3.68 20 2.36 20 1 20 C1 20.66 1 21.32 1 22 C3.31 22 5.62 22 8 22 C8 24.64 8 27.28 8 30 C7.67 30 7.34 30 7 30 C7 27.69 7 25.38 7 23 C4.69 23 2.38 23 0 23 C0 15.41 0 7.82 0 0 Z " fill="#2C487A" transform="translate(273,278)"/>
<path d="M0 0 C0.33 0 0.66 0 1 0 C1 10.56 1 21.12 1 32 C0.01 32 -0.98 32 -2 32 C-2.33 32.66 -2.66 33.32 -3 34 C-4.98 34 -6.96 34 -9 34 C-8.360625 33.21625 -7.72125 32.4325 -7.0625 31.625 C-3.96332833 27.68059969 -3.75618975 25.06398253 -3.37890625 20.19140625 C-3 18 -3 18 -1 15 C-0.70008931 12.41114829 -0.49134775 9.90850918 -0.375 7.3125 C-0.31699219 6.2596582 -0.31699219 6.2596582 -0.2578125 5.18554688 C-0.1637666 3.45745345 -0.0808032 1.72876325 0 0 Z " fill="#233D68" transform="translate(106,280)"/>
<path d="M0 0 C1.33332095 2.6666419 0.67102033 4.16680303 0 7 C-0.66 7 -1.32 7 -2 7 C-2 11.62 -2 16.24 -2 21 C-6.03164412 18.98417794 -7.60857906 17.71998812 -10 14 C-9.75600189 9.90431749 -7.13159913 7.63382442 -4.4375 4.75 C-3.61121094 3.85796875 -2.78492188 2.9659375 -1.93359375 2.046875 C-1.29550781 1.37140625 -0.65742188 0.6959375 0 0 Z " fill="#1A3A69" transform="translate(164,281)"/>
<path d="M0 0 C0.66 0.99 1.32 1.98 2 3 C1.63330078 4.82788086 1.63330078 4.82788086 1 7 C0.9082124 8.91628262 0.86933568 10.83542784 0.8671875 12.75390625 C0.86589844 13.85541016 0.86460937 14.95691406 0.86328125 16.09179688 C0.86714844 17.23712891 0.87101563 18.38246094 0.875 19.5625 C0.87113281 20.71169922 0.86726562 21.86089844 0.86328125 23.04492188 C0.86457031 24.14513672 0.86585938 25.24535156 0.8671875 26.37890625 C0.86831543 27.3851001 0.86944336 28.39129395 0.87060547 29.42797852 C0.89075254 32.11919397 0.89075254 32.11919397 2 35 C1.66015625 37.48046875 1.66015625 37.48046875 1.0625 40.1875 C0.86785156 41.08855469 0.67320312 41.98960937 0.47265625 42.91796875 C0.31667969 43.60503906 0.16070312 44.29210937 0 45 C-2.64 45 -5.28 45 -8 45 C-8.33 44.34 -8.66 43.68 -9 43 C-6.36 43 -3.72 43 -1 43 C-1 30.46 -1 17.92 -1 5 C-3.97 5 -6.94 5 -10 5 C-8.68 4.67 -7.36 4.34 -6 4 C-5.67 3.01 -5.34 2.02 -5 1 C-3.68 1.33 -2.36 1.66 -1 2 C-0.67 1.34 -0.34 0.68 0 0 Z " fill="#173465" transform="translate(203,272)"/>
<path d="M0 0 C0.33 0 0.66 0 1 0 C1.02505615 0.61520508 1.0501123 1.23041016 1.07592773 1.86425781 C1.19218487 4.65970156 1.31477642 7.45483298 1.4375 10.25 C1.47681641 11.21808594 1.51613281 12.18617187 1.55664062 13.18359375 C1.59853516 14.11816406 1.64042969 15.05273438 1.68359375 16.015625 C1.72025146 16.87446289 1.75690918 17.73330078 1.79467773 18.61816406 C1.96238164 21.29809686 1.96238164 21.29809686 3 25 C18.51 25 34.02 25 50 25 C50 25.66 50 26.32 50 27 C33.5 27 17 27 0 27 C0 18.09 0 9.18 0 0 Z " fill="#163363" transform="translate(266,79)"/>
<path d="M0 0 C7.59 0 15.18 0 23 0 C23 2.31 23 4.62 23 7 C22.67 7 22.34 7 22 7 C22 5.02 22 3.04 22 1 C21.01 1.495 21.01 1.495 20 2 C20 2.99 20 3.98 20 5 C17.22858283 5.08089542 14.45952181 5.14044062 11.6875 5.1875 C10.90181641 5.21263672 10.11613281 5.23777344 9.30664062 5.26367188 C8.54931641 5.27333984 7.79199219 5.28300781 7.01171875 5.29296875 C6.31522217 5.3086792 5.61872559 5.32438965 4.90112305 5.34057617 C2.41762422 4.89567045 1.52898008 3.96642914 0 2 C0 1.34 0 0.68 0 0 Z " fill="#DDE5F3" transform="translate(235,263)"/>
<path d="M0 0 C2.64 0 5.28 0 8 0 C8 9.9 8 19.8 8 30 C5.36 30 2.72 30 0 30 C0 29.67 0 29.34 0 29 C2.31 29 4.62 29 7 29 C7 21.74 7 14.48 7 7 C4.69 7 2.38 7 0 7 C0 4.69 0 2.38 0 0 Z " fill="#A0B3CF" transform="translate(258,271)"/>
<path d="M0 0 C0.81984375 0.05800781 1.6396875 0.11601562 2.484375 0.17578125 C-0.15205741 5.85795521 -4.61950207 9.39877213 -9.515625 13.17578125 C-8.95016663 9.21757266 -7.70660152 6.50987595 -5.515625 3.17578125 C-6.505625 3.17578125 -7.495625 3.17578125 -8.515625 3.17578125 C-8.845625 4.82578125 -9.175625 6.47578125 -9.515625 8.17578125 C-10.175625 8.17578125 -10.835625 8.17578125 -11.515625 8.17578125 C-11.515625 7.51578125 -11.515625 6.85578125 -11.515625 6.17578125 C-12.175625 5.84578125 -12.835625 5.51578125 -13.515625 5.17578125 C-10.40821807 -1.03903261 -6.20026032 -0.25958028 0 0 Z " fill="#D9E5F4" transform="translate(165.515625,276.82421875)"/>
<path d="M0 0 C9.9 0 19.8 0 30 0 C30 0.33 30 0.66 30 1 C27.69 1 25.38 1 23 1 C23 3.31 23 5.62 23 8 C20.36 8 17.72 8 15 8 C15 7.67 15 7.34 15 7 C17.31 7 19.62 7 22 7 C22 5.35 22 3.7 22 2 C15.4 2 8.8 2 2 2 C2 3.32 2 4.64 2 6 C2.99 6.33 3.98 6.66 5 7 C5 7.33 5 7.66 5 8 C3.35 8 1.7 8 0 8 C0 5.36 0 2.72 0 0 Z " fill="#4F678C" transform="translate(235,270)"/>
<path d="M0 0 C2.94751667 2.74423966 5.22773678 5.36219655 7 9 C6 12 6 12 4.875 14 C3.67369408 16.13768978 3.67369408 16.13768978 5 19 C5.66 19.33 6.32 19.66 7 20 C6.01 20.33 5.02 20.66 4 21 C1.69 17.37 -0.62 13.74 -3 10 C-2.01 10 -1.02 10 0 10 C0 9.34 0 8.68 0 8 C0.66 8 1.32 8 2 8 C1.34 5.36 0.68 2.72 0 0 Z " fill="#DCE5F3" transform="translate(183,284)"/>
<path d="M0 0 C0.33 0 0.66 0 1 0 C1 7.26 1 14.52 1 22 C-4 19 -4 19 -4.92578125 16.73828125 C-5.05339844 15.93777344 -5.18101562 15.13726562 -5.3125 14.3125 C-5.45300781 13.50425781 -5.59351563 12.69601562 -5.73828125 11.86328125 C-5.82464844 11.24839844 -5.91101563 10.63351562 -6 10 C-5.01 10 -4.02 10 -3 10 C-3 8.35 -3 6.7 -3 5 C-2.01 4.67 -1.02 4.34 0 4 C0 2.68 0 1.36 0 0 Z " fill="#1F3C71" transform="translate(287,286)"/>
<path d="M0 0 C1.47906892 -0.02689216 2.95827483 -0.04634621 4.4375 -0.0625 C5.26121094 -0.07410156 6.08492188 -0.08570313 6.93359375 -0.09765625 C9 0 9 0 10 1 C10.125 3.5 10.125 3.5 10 6 C9 7 9 7 6.93359375 7.09765625 C6.10988281 7.08605469 5.28617187 7.07445312 4.4375 7.0625 C3.61121094 7.05347656 2.78492187 7.04445313 1.93359375 7.03515625 C1.29550781 7.02355469 0.65742187 7.01195312 0 7 C0 4.69 0 2.38 0 0 Z " fill="#1B3862" transform="translate(84,299)"/>
<path d="M0 0 C3.07839146 3.07839146 5.33131476 5.71499849 7.75 9.25 C8.67039063 10.58804687 8.67039063 10.58804687 9.609375 11.953125 C10.06828125 12.62859375 10.5271875 13.3040625 11 14 C10.67 14.66 10.34 15.32 10 16 C8.2925002 14.71937515 6.62626404 13.38232443 5 12 C5 11.34 5 10.68 5 10 C4.34 10 3.68 10 3 10 C2.34 12.97 1.68 15.94 1 19 C0.67 19 0.34 19 0 19 C0 12.73 0 6.46 0 0 Z " fill="#365078" transform="translate(180,295)"/>
<path d="M0 0 C0.66 0.99 1.32 1.98 2 3 C1.55384396 5.02486203 1.09422695 7.04752211 0.57421875 9.0546875 C-0.28814949 13.47799124 -0.42071788 17.91706722 -0.56958008 22.41479492 C-0.73088385 26.1574968 -1.20257859 28.73656797 -3 32 C-3.08765069 27.97930575 -3.14061018 23.9588599 -3.1875 19.9375 C-3.21263672 18.80376953 -3.23777344 17.67003906 -3.26367188 16.50195312 C-3.3188059 10.19829656 -3.07297201 5.55715936 0 0 Z " fill="#243E6E" transform="translate(77,97)"/>
<path d="M0 0 C1.32 0.66 2.64 1.32 4 2 C3.67 4.31 3.34 6.62 3 9 C2.34 9 1.68 9 1 9 C1 9.66 1 10.32 1 11 C1.66 11 2.32 11 3 11 C2.625 12.9375 2.625 12.9375 2 15 C-1.21451269 16.60725635 -4.43612536 16.05748185 -8 16 C-8 15.67 -8 15.34 -8 15 C-5.69 15 -3.38 15 -1 15 C-1.01160156 14.08476562 -1.02320313 13.16953125 -1.03515625 12.2265625 C-1.04417969 11.03804688 -1.05320313 9.84953125 -1.0625 8.625 C-1.07410156 7.44164062 -1.08570313 6.25828125 -1.09765625 5.0390625 C-1 2 -1 2 0 0 Z " fill="#163564" transform="translate(146,300)"/>
<path d="M0 0 C1.58409994 0.11487748 3.16728963 0.24234508 4.75 0.375 C5.63171875 0.44460937 6.5134375 0.51421875 7.421875 0.5859375 C10 1 10 1 14 3 C-1.84 3 -17.68 3 -34 3 C-34 2.67 -34 2.34 -34 2 C-22.78 2 -11.56 2 0 2 C0 1.34 0 0.68 0 0 Z " fill="#394D6C" transform="translate(110,166)"/>
<path d="M0 0 C0.8971875 0.309375 0.8971875 0.309375 1.8125 0.625 C1.1628125 1.29595703 1.1628125 1.29595703 0.5 1.98046875 C-3.10302816 5.7277842 -3.10302816 5.7277842 -4.5625 10.5625 C-4.43875 11.243125 -4.315 11.92375 -4.1875 12.625 C-5.1775 12.295 -6.1675 11.965 -7.1875 11.625 C-8.1775 11.955 -9.1675 12.285 -10.1875 12.625 C-10.5175 11.635 -10.8475 10.645 -11.1875 9.625 C-10.078125 7.65234375 -10.078125 7.65234375 -8.4375 5.5625 C-7.64085938 4.52416016 -7.64085938 4.52416016 -6.828125 3.46484375 C-3.24274862 -0.55589976 -3.24274862 -0.55589976 0 0 Z " fill="#DBE5F2" transform="translate(91.1875,87.375)"/>
<path d="M0 0 C1.86785156 0.01353516 1.86785156 0.01353516 3.7734375 0.02734375 C5.18496094 0.04474609 5.18496094 0.04474609 6.625 0.0625 C6.295 1.3825 5.965 2.7025 5.625 4.0625 C5.625 3.0725 5.625 2.0825 5.625 1.0625 C1.995 1.0625 -1.635 1.0625 -5.375 1.0625 C-5.375 2.7125 -5.375 4.3625 -5.375 6.0625 C-8.345 6.0625 -11.315 6.0625 -14.375 6.0625 C-14.045 4.4125 -13.715 2.7625 -13.375 1.0625 C-8.85684719 0.17972245 -4.59987306 -0.04339503 0 0 Z " fill="#133467" transform="translate(243.375,248.9375)"/>
<path d="M0 0 C0.33 0.66 0.66 1.32 1 2 C3.31 2 5.62 2 8 2 C8.33 2.99 8.66 3.98 9 5 C9.66 5 10.32 5 11 5 C11 5.99 11 6.98 11 8 C11.66 8.33 12.32 8.66 13 9 C12.75 10.8125 12.75 10.8125 12 13 C10.68 13.99 9.36 14.98 8 16 C8 12.04 8 8.08 8 4 C5.03 4 2.06 4 -1 4 C-0.67 2.68 -0.34 1.36 0 0 Z " fill="#1A3662" transform="translate(137,273)"/>
<path d="M0 0 C0.33 0 0.66 0 1 0 C1 6.27 1 12.54 1 19 C-4.12903226 13.87096774 -4.12903226 13.87096774 -5 10 C-3.75 8.0625 -3.75 8.0625 -2 6 C-1.27648573 4.01985568 -0.59734611 2.02178685 0 0 Z " fill="#304B72" transform="translate(192,278)"/>
<path d="M0 0 C0.66 0.33 1.32 0.66 2 1 C2 5.62 2 10.24 2 15 C0.68 15.33 -0.64 15.66 -2 16 C-2.20413361 10.26157749 -2.27141454 5.39460953 0 0 Z " fill="#1C3A75" transform="translate(326,256)"/>
<path d="M0 0 C3.3 0 6.6 0 10 0 C11.87331172 4.62818191 11.81368544 7.16309209 11 12 C10.87712035 14.9595546 10.90487373 17.91353818 10.9375 20.875 C10.94201172 21.65875 10.94652344 22.4425 10.95117188 23.25 C10.96285907 25.16670014 10.98079092 27.08336048 11 29 C10.34 29 9.68 29 9 29 C9 19.76 9 10.52 9 1 C6.03 1 3.06 1 0 1 C0 0.67 0 0.34 0 0 Z " fill="#1A3563" transform="translate(107,276)"/>
<path d="M0 0 C0.66 0.66 1.32 1.32 2 2 C0.60721983 2.65239158 -0.78939212 3.29660552 -2.1875 3.9375 C-3.35345703 4.47697266 -3.35345703 4.47697266 -4.54296875 5.02734375 C-8.99742833 6.79071487 -13.04748987 7.11990976 -17.8125 7.0625 C-19.27623047 7.04896484 -19.27623047 7.04896484 -20.76953125 7.03515625 C-21.87361328 7.01775391 -21.87361328 7.01775391 -23 7 C-23 6.34 -23 5.68 -23 5 C-21.87851562 4.92652344 -21.87851562 4.92652344 -20.734375 4.8515625 C-19.74953125 4.77679688 -18.7646875 4.70203125 -17.75 4.625 C-16.77546875 4.55539063 -15.8009375 4.48578125 -14.796875 4.4140625 C-12.06530912 4.00966867 -10.4050747 3.28036336 -8 2 C-5.66993089 1.64456573 -3.33672984 1.3086247 -1 1 C-0.67 0.67 -0.34 0.34 0 0 Z " fill="#DAE8F8" transform="translate(289,167)"/>
<path d="M0 0 C2.64 0 5.28 0 8 0 C8.33 1.65 8.66 3.3 9 5 C6.04335481 6.4783226 3.25770263 6.06032783 0 6 C0 4.02 0 2.04 0 0 Z " fill="#465C7E" transform="translate(84,286)"/>
<path d="M0 0 C0 1.65 0 3.3 0 5 C0.66 5 1.32 5 2 5 C2.33 4.01 2.66 3.02 3 2 C3 4.31 3 6.62 3 9 C0.69 9 -1.62 9 -4 9 C-4.33 6.36 -4.66 3.72 -5 1 C-3 0 -3 0 0 0 Z " fill="#1F3B6F" transform="translate(270,269)"/>
<path d="M0 0 C1.4589426 0.47730838 2.91713496 0.95691042 4.375 1.4375 C5.18710938 1.70433594 5.99921875 1.97117188 6.8359375 2.24609375 C9 3 9 3 11 4 C11 4.99 11 5.98 11 7 C7.37 7 3.74 7 0 7 C0.33 5.68 0.66 4.36 1 3 C0.67 2.01 0.34 1.02 0 0 Z " fill="#213E6B" transform="translate(99,161)"/>
<path d="M0 0 C2.10288089 3.15432133 2.93852446 5.75105616 4 9.375 C5.16712114 13.34138825 6.40012399 17.18600987 8 21 C7.34 21 6.68 21 6 21 C6 20.34 6 19.68 6 19 C5.34 19 4.68 19 4 19 C3.71125 18.360625 3.4225 17.72125 3.125 17.0625 C2.17176549 14.84793921 2.17176549 14.84793921 0 14 C0 9.38 0 4.76 0 0 Z " fill="#294471" transform="translate(194,216)"/>
<path d="M0 0 C2.31 0 4.62 0 7 0 C7 2.31 7 4.62 7 7 C4.69 7 2.38 7 0 7 C0 4.69 0 2.38 0 0 Z " fill="#DBE4F4" transform="translate(281,278)"/>
<path d="M0 0 C2.31 0 4.62 0 7 0 C7 2.31 7 4.62 7 7 C4.69 7 2.38 7 0 7 C0 4.69 0 2.38 0 0 Z " fill="#DAE6F7" transform="translate(273,271)"/>
<path d="M0 0 C2.31 0 4.62 0 7 0 C7 2.31 7 4.62 7 7 C4.69 7 2.38 7 0 7 C0 4.69 0 2.38 0 0 Z " fill="#DEE9F9" transform="translate(258,256)"/>
<path d="M0 0 C2.31 0 4.62 0 7 0 C7 2.31 7 4.62 7 7 C4.69 7 2.38 7 0 7 C0 4.69 0 2.38 0 0 Z " fill="#DFEAFA" transform="translate(273,256)"/>
<path d="M0 0 C2.31 0 4.62 0 7 0 C7 2.31 7 4.62 7 7 C4.69 7 2.38 7 0 7 C0 4.69 0 2.38 0 0 Z " fill="#DAE4F6" transform="translate(281,248)"/>
<path d="M0 0 C0.33 0.66 0.66 1.32 1 2 C0.0390625 4.12890625 0.0390625 4.12890625 -1.375 6.5625 C-2.06722656 7.77099609 -2.06722656 7.77099609 -2.7734375 9.00390625 C-4 11 -4 11 -5 12 C-5.23653523 14.52596259 -5.42173692 17.03107207 -5.5625 19.5625 C-5.60568359 20.27341797 -5.64886719 20.98433594 -5.69335938 21.71679688 C-5.79971777 23.47761912 -5.90038846 25.2387832 -6 27 C-6.33 27 -6.66 27 -7 27 C-7.05434116 24.4580411 -7.0938339 21.91726318 -7.125 19.375 C-7.14175781 18.66214844 -7.15851563 17.94929688 -7.17578125 17.21484375 C-7.23117336 11.17710356 -6.59033036 6.74179039 -2.375 2.125 C-1.59125 1.42375 -0.8075 0.7225 0 0 Z " fill="#CCD5E7" transform="translate(221,247)"/>
<path d="M0 0 C-0.33 0.99 -0.66 1.98 -1 3 C-10.47611697 4.16656743 -19.52958787 3.78118882 -29 3 C-29 2.34 -29 1.68 -29 1 C-28.35450195 1.00523682 -27.70900391 1.01047363 -27.04394531 1.01586914 C-24.11264015 1.03668657 -21.18135057 1.04967534 -18.25 1.0625 C-17.23421875 1.07087891 -16.2184375 1.07925781 -15.171875 1.08789062 C-14.1921875 1.09111328 -13.2125 1.09433594 -12.203125 1.09765625 C-10.85202637 1.10551147 -10.85202637 1.10551147 -9.47363281 1.11352539 C-6.19232279 0.9629323 -3.29810257 0 0 0 Z " fill="#28416D" transform="translate(285,320)"/>
<path d="M0 0 C0.33 0 0.66 0 1 0 C1 11.88 1 23.76 1 36 C0.01 36 -0.98 36 -2 36 C-2 33.69 -2 31.38 -2 29 C-1.34 29 -0.68 29 0 29 C0 19.43 0 9.86 0 0 Z " fill="#19355F" transform="translate(135,278)"/>
<path d="M0 0 C1.98 0.495 1.98 0.495 4 1 C4 2.32 4 3.64 4 5 C4.66 5 5.32 5 6 5 C6.33 6.32 6.66 7.64 7 9 C4 11 4 11 1 11 C1.04125 10.236875 1.0825 9.47375 1.125 8.6875 C1.22080824 5.77281584 1.22080824 5.77281584 -1 3 C-0.67 2.01 -0.34 1.02 0 0 Z " fill="#EBEEFA" transform="translate(151,295)"/>
<path d="M0 0 C1.98 0 3.96 0 6 0 C5.34805664 0.3400708 4.69611328 0.6801416 4.02441406 1.03051758 C1.6566581 2.92867066 1.6566581 2.92867066 1.54589844 6.36987305 C1.54653007 7.75065026 1.56903503 9.13153079 1.609375 10.51171875 C1.61503479 11.23994339 1.62069458 11.96816803 1.62652588 12.71846008 C1.64889971 15.04214498 1.69909331 17.36428207 1.75 19.6875 C1.77006391 21.26364959 1.78831488 22.83982337 1.8046875 24.41601562 C1.84876717 28.27793924 1.91779775 32.1387073 2 36 C1.34 36 0.68 36 0 36 C0 24.12 0 12.24 0 0 Z " fill="#E2F0FE" transform="translate(136,278)"/>
<path d="M0 0 C0.33 0 0.66 0 1 0 C1.02902168 4.41665288 1.04680608 8.83328123 1.0625 13.25 C1.07087891 14.50425781 1.07925781 15.75851562 1.08789062 17.05078125 C1.09111328 18.25605469 1.09433594 19.46132813 1.09765625 20.703125 C1.10289307 21.81333008 1.10812988 22.92353516 1.11352539 24.06738281 C1.01658493 26.57157379 0.73230276 28.6181156 0 31 C-0.66 30.67 -1.32 30.34 -2 30 C-2.40729228 27.67843403 -2.74438677 25.3431213 -3 23 C-2.34 22.67 -1.68 22.34 -1 22 C-0.67 14.74 -0.34 7.48 0 0 Z " fill="#1D3866" transform="translate(170,286)"/>
<path d="M0 0 C0.33 0 0.66 0 1 0 C1 6.93 1 13.86 1 21 C-1.31 21 -3.62 21 -6 21 C-6 18.69 -6 16.38 -6 14 C-5.67 14 -5.34 14 -5 14 C-5 15.65 -5 17.3 -5 19 C-4.01 19 -3.02 19 -2 19 C-0.72118213 15.16354638 -0.97406755 11.80168476 -1.0625 7.7890625 C-1.00152575 5.06808645 -0.61564313 2.64534158 0 0 Z " fill="#233B6C" transform="translate(264,234)"/>
<path d="M0 0 C7.26 0 14.52 0 22 0 C22 0.33 22 0.66 22 1 C15.4 1.66 8.8 2.32 2 3 C1.67 4.32 1.34 5.64 1 7 C2.98 7 4.96 7 7 7 C7 7.33 7 7.66 7 8 C4.69 8 2.38 8 0 8 C0 5.36 0 2.72 0 0 Z " fill="#3E577B" transform="translate(228,248)"/>
<path d="M0 0 C2.57973922 4.81551321 3.12435484 8.52838724 3 14 C3.66 14.33 4.32 14.66 5 15 C5 17.64 5 20.28 5 23 C2.32792565 20.32792565 1.90734652 17.87468333 0.875 14.25 C0.52179688 13.03828125 0.16859375 11.8265625 -0.1953125 10.578125 C-0.9496198 7.22402068 -1.23552005 4.42016066 -1 1 C-0.67 0.67 -0.34 0.34 0 0 Z " fill="#C9DAEB" transform="translate(195,209)"/>
<path d="M0 0 C3.5 0.3125 3.5 0.3125 7 1 C7.33 1.66 7.66 2.32 8 3 C2.555 5.475 2.555 5.475 -3 8 C-1.125 1.125 -1.125 1.125 0 0 Z " fill="#DDE7F5" transform="translate(235,202)"/>
<path d="M0 0 C0.66 0.33 1.32 0.66 2 1 C2.59355614 3.64860427 2.74209269 6.29197322 3 9 C1.35 9 -0.3 9 -2 9 C-2.6875 6.75 -2.6875 6.75 -3 4 C-1.5625 1.6875 -1.5625 1.6875 0 0 Z " fill="#E5ECF8" transform="translate(160,305)"/>
<path d="M0 0 C0.66 0 1.32 0 2 0 C1.39363767 5.76044212 -0.75658279 10.72014369 -3 16 C-4.09404518 12.66355017 -3.89669485 10.2934212 -3.1875 6.875 C-3.01605469 6.00617188 -2.84460938 5.13734375 -2.66796875 4.2421875 C-2 2 -2 2 0 0 Z " fill="#D4E1F4" transform="translate(313,135)"/>
<path d="M0 0 C1.98 0 3.96 0 6 0 C6 1.98 6 3.96 6 6 C4.02 6 2.04 6 0 6 C0 4.02 0 2.04 0 0 Z " fill="#E5EEFA" transform="translate(251,279)"/>
<path d="M0 0 C1.98 0 3.96 0 6 0 C6 1.98 6 3.96 6 6 C4.02 6 2.04 6 0 6 C0 4.02 0 2.04 0 0 Z " fill="#E4EFFB" transform="translate(251,249)"/>
<path d="M0 0 C-0.66 1.98 -1.32 3.96 -2 6 C-2.99 6 -3.98 6 -5 6 C-5.99 6.495 -5.99 6.495 -7 7 C-7 6.34 -7 5.68 -7 5 C-7.99 4.67 -8.98 4.34 -10 4 C-6.87839899 0.56623888 -4.64008112 -1.54669371 0 0 Z " fill="#EAF0F9" transform="translate(154,287)"/>
<path d="M0 0 C0.33 0 0.66 0 1 0 C1 2.97 1 5.94 1 9 C-4.61 9 -10.22 9 -16 9 C-12.01219998 7.00609999 -10.52852428 6.77313037 -6.25 6.875 C-5.26515625 6.89304688 -4.2803125 6.91109375 -3.265625 6.9296875 C-2.14414063 6.96449219 -2.14414063 6.96449219 -1 7 C-0.67 4.69 -0.34 2.38 0 0 Z " fill="#E0F0FD" transform="translate(249,239)"/>
<path d="M0 0 C0.99 0 1.98 0 3 0 C2.25 6.625 2.25 6.625 0 10 C-0.66 10 -1.32 10 -2 10 C-2 9.34 -2 8.68 -2 8 C-2.66 7.67 -3.32 7.34 -4 7 C-3.34 7 -2.68 7 -2 7 C-1.34 4.69 -0.68 2.38 0 0 Z " fill="#ECECF1" transform="translate(98,300)"/>
<path d="M0 0 C2.97 0 5.94 0 9 0 C9 0.33 9 0.66 9 1 C6.36 1 3.72 1 1 1 C1.33 1.99 1.66 2.98 2 4 C2.99 3.67 3.98 3.34 5 3 C5 3.66 5 4.32 5 5 C6.32 5.66 7.64 6.32 9 7 C6.03 7 3.06 7 0 7 C0 4.69 0 2.38 0 0 Z " fill="#3D587E" transform="translate(84,299)"/>
<path d="M0 0 C2.93200474 2.85276137 5.64315404 5.65079784 8 9 C4.25 10.125 4.25 10.125 2 9 C0.37265234 5.65489648 0 3.81164166 0 0 Z " fill="#26426E" transform="translate(225,300)"/>
<path d="M0 0 C-1 2 -1 2 -3.6875 3.125 C-6.9579435 3.98889074 -9.63706182 4.16013991 -13 4 C-13.33 4.66 -13.66 5.32 -14 6 C-14.66 5.34 -15.32 4.68 -16 4 C-5.62642369 -0.59225513 -5.62642369 -0.59225513 0 0 Z " fill="#2E496F" transform="translate(254,202)"/>
<path d="M0 0 C0.81984375 0.05800781 1.6396875 0.11601562 2.484375 0.17578125 C2.154375 0.83578125 1.824375 1.49578125 1.484375 2.17578125 C-1.815625 1.84578125 -5.115625 1.51578125 -8.515625 1.17578125 C-8.845625 3.48578125 -9.175625 5.79578125 -9.515625 8.17578125 C-10.175625 8.17578125 -10.835625 8.17578125 -11.515625 8.17578125 C-11.515625 7.51578125 -11.515625 6.85578125 -11.515625 6.17578125 C-12.175625 5.84578125 -12.835625 5.51578125 -13.515625 5.17578125 C-10.40821807 -1.03903261 -6.20026032 -0.25958028 0 0 Z " fill="#A6B7D2" transform="translate(165.515625,276.82421875)"/>
<path d="M0 0 C0.66 0.66 1.32 1.32 2 2 C1.34 3.65 0.68 5.3 0 7 C-2.64 6.67 -5.28 6.34 -8 6 C-5.63379989 3.38472619 -3.057952 1.73559438 0 0 Z " fill="#284676" transform="translate(303,310)"/>
<path d="M0 0 C1.32830615 3.98491845 0.23204404 5.40048548 -1.4375 9.1875 C-1.91058594 10.27417969 -2.38367188 11.36085938 -2.87109375 12.48046875 C-3.42990234 13.72763672 -3.42990234 13.72763672 -4 15 C-4.66 14.34 -5.32 13.68 -6 13 C-6 12.01 -6 11.02 -6 10 C-5.01 9.34 -4.02 8.68 -3 8 C-1.99831469 6.05167065 -1.99831469 6.05167065 -1.3125 3.875 C-1.06113281 3.15054687 -0.80976563 2.42609375 -0.55078125 1.6796875 C-0.36902344 1.12539063 -0.18726563 0.57109375 0 0 Z " fill="#D1DEF3" transform="translate(322,278)"/>
<path d="M0 0 C2.4375 0.8125 2.4375 0.8125 5 2 C5.33 2.99 5.66 3.98 6 5 C2.37 5 -1.26 5 -5 5 C-5 4.67 -5 4.34 -5 4 C-3.35 4 -1.7 4 0 4 C0 2.68 0 1.36 0 0 Z " fill="#B7C9DD" transform="translate(163,310)"/>
<path d="M0 0 C1 2 1 2 0.875 4.4375 C0 7 0 7 -2.5625 8.8125 C-3.366875 9.204375 -4.17125 9.59625 -5 10 C-5.66 9.34 -6.32 8.68 -7 8 C-4.69 5.36 -2.38 2.72 0 0 Z " fill="#304B76" transform="translate(164,281)"/>
<path d="M0 0 C0.33 0 0.66 0 1 0 C0.91284983 1.93833996 0.80467036 3.8757429 0.6875 5.8125 C0.62949219 6.89144531 0.57148437 7.97039062 0.51171875 9.08203125 C-0.03068507 12.17497517 -0.55289624 13.13022903 -3 15 C-2.5547115 9.72684667 -1.91626837 4.98229776 0 0 Z " fill="#C4D3E9" transform="translate(79,98)"/>
<path d="M0 0 C3.63 0 7.26 0 11 0 C11 0.33 11 0.66 11 1 C8.36 1 5.72 1 3 1 C3 1.99 3 2.98 3 4 C1.02 4.66 -0.96 5.32 -3 6 C-3 5.01 -3 4.02 -3 3 C-2.01 3 -1.02 3 0 3 C0 2.01 0 1.02 0 0 Z " fill="#D9DDE5" transform="translate(82,306)"/>
<path d="M0 0 C4.34170523 2.3836813 8.2064129 4.78119883 12 8 C7.8333396 7.52651586 5.07115285 6.95303159 2 4 C2 3.34 2 2.68 2 2 C1.34 2 0.68 2 0 2 C0 1.34 0 0.68 0 0 Z " fill="#2C466E" transform="translate(233,309)"/>
<path d="M0 0 C0.33 0 0.66 0 1 0 C1 2.31 1 4.62 1 7 C-3.29 7 -7.58 7 -12 7 C-12 6.67 -12 6.34 -12 6 C-8.7 5.67 -5.4 5.34 -2 5 C-1.34 3.35 -0.68 1.7 0 0 Z " fill="#1C3561" transform="translate(249,278)"/>
<path d="M0 0 C0 1.98 0 3.96 0 6 C-2.31 6 -4.62 6 -7 6 C-5.96557526 2.89672578 -3.70631018 0 0 0 Z " fill="#1C386C" transform="translate(310,249)"/>
<path d="M0 0 C-0.99 0.495 -0.99 0.495 -2 1 C-2 1.66 -2 2.32 -2 3 C-8.96428571 5.27678571 -8.96428571 5.27678571 -13 4 C-11.40233897 3.13372601 -9.79660056 2.28233535 -8.1875 1.4375 C-7.29417969 0.96183594 -6.40085937 0.48617187 -5.48046875 -0.00390625 C-3 -1 -3 -1 0 0 Z " fill="#365178" transform="translate(297,167)"/>
<path d="M0 0 C1 3 1 3 -0.125 5.6875 C-2 8 -2 8 -4.6875 8.3125 C-5.450625 8.209375 -6.21375 8.10625 -7 8 C-6.02133662 6.85373678 -5.04205413 5.70800212 -4.0625 4.5625 C-3.51722656 3.92441406 -2.97195313 3.28632813 -2.41015625 2.62890625 C-1.63204305 1.73008851 -0.84063472 0.84063472 0 0 Z " fill="#2F4772" transform="translate(311,302)"/>
<path d="M0 0 C2.9375 0.75 2.9375 0.75 6 2 C6.875 4.125 6.875 4.125 7 6 C6.01 6.33 5.02 6.66 4 7 C2.02 3.535 2.02 3.535 0 0 Z " fill="#26406F" transform="translate(313,233)"/>
<path d="M0 0 C0.66 0.66 1.32 1.32 2 2 C-0.97 4.31 -3.94 6.62 -7 9 C-7.33 8.01 -7.66 7.02 -8 6 C-5.36 4.02 -2.72 2.04 0 0 Z " fill="#D1DCF1" transform="translate(230,209)"/>
<path d="M0 0 C0.33 0.66 0.66 1.32 1 2 C-0.76227632 5.61730402 -2.64326421 7.80075931 -6 10 C-6.66 9.67 -7.32 9.34 -8 9 C-5.36 6.03 -2.72 3.06 0 0 Z " fill="#264169" transform="translate(307,154)"/>
<path d="M0 0 C-1.24735567 0.6509259 -2.49801832 1.29551669 -3.75 1.9375 C-4.44609375 2.29714844 -5.1421875 2.65679687 -5.859375 3.02734375 C-7.90224433 3.95558182 -9.81115376 4.53166578 -12 5 C-12.33 4.01 -12.66 3.02 -13 2 C-11.68 2.33 -10.36 2.66 -9 3 C-8.67 2.34 -8.34 1.68 -8 1 C-2.47058824 -1.23529412 -2.47058824 -1.23529412 0 0 Z " fill="#D2E0F5" transform="translate(296,315)"/>
<path d="M0 0 C0.66 0.33 1.32 0.66 2 1 C-0.97 4.96 -0.97 4.96 -4 9 C-4.33 8.01 -4.66 7.02 -5 6 C-2.66666667 1.33333333 -2.66666667 1.33333333 0 0 Z " fill="#CEDEF2" transform="translate(315,294)"/>
<path d="M0 0 C0.2475 0.639375 0.495 1.27875 0.75 1.9375 C1.81562433 4.18741541 1.81562433 4.18741541 4.125 4.75 C4.74375 4.8325 5.3625 4.915 6 5 C6 5.66 6 6.32 6 7 C4.68 7.33 3.36 7.66 2 8 C0.4375 6.25 0.4375 6.25 -1 4 C-0.6875 1.75 -0.6875 1.75 0 0 Z " fill="#EBEBEE" transform="translate(93,280)"/>
<path d="M0 0 C3.96 0.33 7.92 0.66 12 1 C12 1.33 12 1.66 12 2 C10.39602723 2.16852247 8.7918131 2.33474886 7.1875 2.5 C6.29417969 2.5928125 5.40085938 2.685625 4.48046875 2.78125 C2 3 2 3 -1 3 C-0.67 2.01 -0.34 1.02 0 0 Z " fill="#1D3867" transform="translate(154,275)"/>
<path d="M0 0 C1.65 0 3.3 0 5 0 C5 1.32 5 2.64 5 4 C3.35 4.33 1.7 4.66 0 5 C0 3.35 0 1.7 0 0 Z " fill="#E9EEF7" transform="translate(259,272)"/>
<path d="M0 0 C4.62609198 -0.3227506 7.28026121 0.15549386 11 3 C11 3.66 11 4.32 11 5 C9.35153231 4.55123384 7.70626545 4.09069512 6.0625 3.625 C5.14597656 3.36976563 4.22945312 3.11453125 3.28515625 2.8515625 C1 2 1 2 0 0 Z " fill="#324872" transform="translate(140,173)"/>
<path d="M0 0 C0.33 0 0.66 0 1 0 C1.05447047 1.41623216 1.09300508 2.83308191 1.125 4.25 C1.14820313 5.03890625 1.17140625 5.8278125 1.1953125 6.640625 C0.9828378 9.20731941 0.28654105 10.7916067 -1 13 C-1.66 13 -2.32 13 -3 13 C-2.01 8.71 -1.02 4.42 0 0 Z " fill="#38547C" transform="translate(315,133)"/>
<path d="M0 0 C1.32 1.65 2.64 3.3 4 5 C3.34 6.32 2.68 7.64 2 9 C0.4375 6.1875 0.4375 6.1875 -1 3 C-0.67 2.01 -0.34 1.02 0 0 Z " fill="#DAE6F4" transform="translate(179,278)"/>
<path d="M0 0 C4.42857143 5.14285714 4.42857143 5.14285714 5 9 C3.125 8.375 3.125 8.375 1 7 C-0.25 3.875 -0.25 3.875 -1 1 C-0.67 0.67 -0.34 0.34 0 0 Z " fill="#D7E6F6" transform="translate(202,232)"/>
<path d="M0 0 C1.65 0 3.3 0 5 0 C4.625 1.9375 4.625 1.9375 4 4 C3.01 4.495 3.01 4.495 2 5 C2 4.34 2 3.68 2 3 C0.68 2.67 -0.64 2.34 -2 2 C-1.34 2 -0.68 2 0 2 C0 1.34 0 0.68 0 0 Z " fill="#1C3D71" transform="translate(148,279)"/>
<path d="M0 0 C0.66 0 1.32 0 2 0 C2.33 2.64 2.66 5.28 3 8 C2.01 8.33 1.02 8.66 0 9 C0 6.03 0 3.06 0 0 Z " fill="#173562" transform="translate(316,128)"/>
<path d="M0 0 C1.98 0 3.96 0 6 0 C6 2.31 6 4.62 6 7 C5.34 7 4.68 7 4 7 C3 4 3 4 4 1 C2.68 0.67 1.36 0.34 0 0 Z " fill="#E3EFFE" transform="translate(229,256)"/>
<path d="M0 0 C0 0.33 0 0.66 0 1 C-3.3 1.66 -6.6 2.32 -10 3 C-10 2.34 -10 1.68 -10 1 C-6.1496895 -1.56687367 -4.41430237 -0.83288724 0 0 Z " fill="#39517A" transform="translate(261,212)"/>
<path d="M0 0 C2.64 1.98 5.28 3.96 8 6 C6.68 6.33 5.36 6.66 4 7 C0 2.25 0 2.25 0 0 Z " fill="#D4E0F3" transform="translate(158,183)"/>
<path d="M0 0 C-0.66 0 -1.32 0 -2 0 C-2 0.66 -2 1.32 -2 2 C-4.60582371 2.93065133 -5.64198224 3.14917407 -8.25 2.0625 C-8.8275 1.711875 -9.405 1.36125 -10 1 C-3.71428571 -1.42857143 -3.71428571 -1.42857143 0 0 Z " fill="#CFDEF4" transform="translate(106,82)"/>
<path d="M0 0 C1.65 0 3.3 0 5 0 C5 0.99 5 1.98 5 3 C3.35 3.33 1.7 3.66 0 4 C0 2.68 0 1.36 0 0 Z " fill="#153564" transform="translate(85,287)"/>
<path d="M0 0 C2.97 0.495 2.97 0.495 6 1 C5.67 1.99 5.34 2.98 5 4 C5 3.34 5 2.68 5 2 C4.34 2 3.68 2 3 2 C3 2.66 3 3.32 3 4 C2.01 4 1.02 4 0 4 C0 2.68 0 1.36 0 0 Z " fill="#EBEAEB" transform="translate(79,282)"/>
<path d="M0 0 C0 0.99 0 1.98 0 3 C-2.64 3 -5.28 3 -8 3 C-8 2.34 -8 1.68 -8 1 C-2.25 0 -2.25 0 0 0 Z " fill="#445D84" transform="translate(179,275)"/>
<path d="M0 0 C-0.33 2.31 -0.66 4.62 -1 7 C-4 5 -4 5 -4.6875 2.875 C-4.790625 2.25625 -4.89375 1.6375 -5 1 C-2 0 -2 0 0 0 Z " fill="#22416F" transform="translate(101,275)"/>
<path d="M0 0 C0.33 0 0.66 0 1 0 C1 1.98 1 3.96 1 6 C-1.31 6 -3.62 6 -6 6 C-5.195625 5.38125 -4.39125 4.7625 -3.5625 4.125 C-0.96125481 2.25835959 -0.96125481 2.25835959 0 0 Z " fill="#D5E1F7" transform="translate(234,272)"/>
<path d="M0 0 C0.66 0.99 1.32 1.98 2 3 C0.68 5.31 -0.64 7.62 -2 10 C-2.66 9.67 -3.32 9.34 -4 9 C-4 8.34 -4 7.68 -4 7 C-3.34 7 -2.68 7 -2 7 C-1.855625 6.21625 -1.71125 5.4325 -1.5625 4.625 C-1 2 -1 2 0 0 Z " fill="#26426D" transform="translate(222,233)"/>
<path d="M0 0 C0.04125 0.61875 0.0825 1.2375 0.125 1.875 C0.41375 2.57625 0.7025 3.2775 1 4 C3.99615946 5.3045656 3.99615946 5.3045656 7 6 C7 6.33 7 6.66 7 7 C4.69 7 2.38 7 0 7 C0 4.69 0 2.38 0 0 Z " fill="#D0E2F5" transform="translate(258,226)"/>
<path d="M0 0 C0.66 1.32 1.32 2.64 2 4 C1.34 4 0.68 4 0 4 C0 4.66 0 5.32 0 6 C-0.66 6 -1.32 6 -2 6 C-2.33 6.66 -2.66 7.32 -3 8 C-2.74438677 5.6568787 -2.40729228 3.32156597 -2 1 C-1.34 0.67 -0.68 0.34 0 0 Z " fill="#D8E2EC" transform="translate(172,198)"/>
<path d="M0 0 C0.99 0.33 1.98 0.66 3 1 C0.36 2.98 -2.28 4.96 -5 7 C-3.75023244 3.34683329 -3.32901247 2.21934164 0 0 Z " fill="#243E6A" transform="translate(87,86)"/>
<path d="M0 0 C1.32 0.33 2.64 0.66 4 1 C4.33 3.31 4.66 5.62 5 8 C2.74754119 5.31158141 1.11786042 3.35358125 0 0 Z " fill="#CDDBEE" transform="translate(189,306)"/>
<path d="M0 0 C1.32 0.66 2.64 1.32 4 2 C4 2.66 4 3.32 4 4 C3.01 4 2.02 4 1 4 C0.67 4.99 0.34 5.98 0 7 C-1.125 2.25 -1.125 2.25 0 0 Z " fill="#2F476C" transform="translate(146,300)"/>
<path d="M0 0 C1.5 1.375 1.5 1.375 3 3 C3 3.66 3 4.32 3 5 C3.99 5.33 4.98 5.66 6 6 C5.34 6.66 4.68 7.32 4 8 C2.35 6.02 0.7 4.04 -1 2 C-0.67 1.34 -0.34 0.68 0 0 Z " fill="#D3E2F3" transform="translate(226,298)"/>
<path d="M0 0 C1.9375 0.625 1.9375 0.625 4 2 C4.75 5.125 4.75 5.125 5 8 C2.27573689 5.64722731 1.1858237 3.37503669 0 0 Z " fill="#C0D0E8" transform="translate(218,288)"/>
<path d="M0 0 C0.66 0 1.32 0 2 0 C2 2.31 2 4.62 2 7 C1.34 7 0.68 7 0 7 C-1.125 2.25 -1.125 2.25 0 0 Z " fill="#183461" transform="translate(300,256)"/>
<path d="M0 0 C0 3 0 3 -2 5.1875 C-2.66 5.785625 -3.32 6.38375 -4 7 C-4 6.34 -4 5.68 -4 5 C-4.66 4.67 -5.32 4.34 -6 4 C-4.02 2.68 -2.04 1.36 0 0 Z " fill="#D7E3F2" transform="translate(240,220)"/>
<path d="M0 0 C-6.75 4 -6.75 4 -9 4 C-8 1 -8 1 -6.1875 -0.25 C-3.66056586 -1.11637742 -2.47778006 -0.88492145 0 0 Z " fill="#344D74" transform="translate(247,217)"/>
</svg>
