<svg xmlns="http://www.w3.org/2000/svg" viewBox="0 0 1196.94 787.03"><defs><style>.cls-1{fill:#fff;}</style></defs><g id="Layer_2" data-name="Layer 2"><g id="Layer_1-2" data-name="Layer 1"><path class="cls-1" d="M898.07,259.62A136.38,136.38,0,0,0,823,236.92a142.91,142.91,0,0,0-53.25,10.54,163.5,163.5,0,0,0-48.24,30.17c-38.86,34.63-80,52.17-122.2,52.17s-83.71-17.62-123.19-52.25a202.12,202.12,0,0,0-21-16.7,141.56,141.56,0,0,0-177.75,17,142.41,142.41,0,0,0-41,83.41,140.77,140.77,0,0,0,19.39,90.8c25.55,41.78,71.49,67.72,119.89,67.72a134.13,134.13,0,0,0,49.17-9.32c22.16-8.85,41.47-23.93,55.86-36.09,36.71-31.16,75.41-47,115-47,19.93,0,40.63,4,61.64,11.85s42.24,24.16,62.63,39.86c2.93,2.23,5.77,4.46,8.7,6.69,29.78,22.7,60.86,34.17,92.49,34.17,20.7,0,41.71-5,62.25-14.85,49.17-23.62,77.26-67.26,79.26-123l.07-.84v-.77C961.55,327.72,939.77,287.09,898.07,259.62ZM870.44,478.23c-16.85,8.08-33.32,11.93-49.4,11.93-25.78,0-50.56-9.85-74.49-28-24.85-19-50.24-40-78.95-50.79-24.7-9.23-48.7-13.77-72-13.77-48,0-92.88,19-134.27,54.1-14.39,12.23-30.24,24.23-47.48,31.08a103.73,103.73,0,0,1-38.24,7.31c-37.55,0-74-20.08-94.5-53.55C254.24,392.74,261.47,335.34,298.25,299a111.76,111.76,0,0,1,78.65-32.09,110,110,0,0,1,61.55,18.62,177.8,177.8,0,0,1,18,14.32c45.25,39.78,94.11,59.63,142.81,59.63s97.34-19.85,142.05-59.71c24.47-21.85,53.33-33.09,81.64-33.09a105.56,105.56,0,0,1,58.71,17.78c33.71,22.16,50.33,54.25,51.18,96.57C931.31,424.22,911.22,458.69,870.44,478.23Z"/><path class="cls-1" d="M254.09,54.4C221.3,21.31,168.37,0,119.35,0,83.72,0,53.63,11.23,32.47,32.39,11,53.94-.23,84.64,0,121.19c.23,49.33,21.16,101.65,53.33,133.36,26.62,26.23,62.17,40.7,100.18,40.7s73.64-14.47,100.19-40.78C308.87,199.68,309.1,110,254.09,54.4Zm-21.4,179a113.82,113.82,0,0,1-158.43,0C31.32,191.14,10.16,97,53.56,53.48,70.1,36.86,93.88,29.7,119.27,29.7h.08c41.24,0,86.8,18.62,113.65,45.63C276.4,119.27,276.32,190.06,232.69,233.38Z"/><path class="cls-1" d="M683.15,512.09c-25.16-25.24-54.33-38.47-84.34-38.47-30.39.07-60.09,13.85-85.79,39.78-34.71,35-56.87,86.87-56.48,132,.23,37.32,15.15,72.72,42,99.65S560.88,786.87,598.2,787c77.79.3,141.43-63,141.74-141.13C740.17,599.27,717.85,546.79,683.15,512.09Zm-84.8,245.23A113.91,113.91,0,0,1,486.24,645.21c-.46-60.17,51.17-141.74,112.57-141.82,23.47-.07,45.33,11.78,63.25,29.71h.08c29.09,29.16,48.25,74.64,48.09,112.65C709.93,707.54,659.76,757.55,598.35,757.32Z"/><polygon class="cls-1" points="662.11 533.12 662.11 533.12 662.11 533.12 662.11 533.12"/><path class="cls-1" d="M1163.23,32.78c-21.78-21.24-52-32.55-87.49-32.55-48.17,0-100.11,21.24-132.43,54.1a141.67,141.67,0,0,0,101.57,240.54,140.28,140.28,0,0,0,100.42-41.71c31.7-32,52-83.87,51.63-132.12C1196.7,84.72,1185,54.17,1163.23,32.78Zm-39.09,199.45a112.21,112.21,0,0,1-158,.69c-44.32-43.78-45-113.65-1.61-157.74,26.54-27,70.71-45.17,111.19-45.17,25.47,0,49.48,7.23,66.64,24C1186.16,97,1166.92,189,1124.14,232.23Z"/></g></g></svg>